<?xml version="1.0" encoding="utf-8"?>
<!-- Generator: Adobe Illustrator 23.0.3, SVG Export Plug-In . SVG Version: 6.00 Build 0)  -->
<svg version="1.1" id="Ebene_1" xmlns="http://www.w3.org/2000/svg" xmlns:xlink="http://www.w3.org/1999/xlink" x="0px" y="0px"
	 viewBox="0 0 167.5 211.2" style="enable-background:new 0 0 167.5 211.2;" xml:space="preserve">
<style type="text/css">
	.st0{fill:#CD1719;}
</style>
<path class="st0" d="M141.1,40.8c-2.8,3.6-6.1,7-9.7,10.1c-7.1,6.2-15.3,11.5-23.7,16.3C94.2,75,79.5,83.7,63.3,87.3
	C72.8,73,84.6,59.9,98.5,48.5c7.1-5.9,14.4-11.7,23-15.9c3.9-1.9,7.9-3.4,12.2-4.3c2.7-0.5,8.9-1.7,11.1,0.3
	C148.4,31.6,143.1,38.1,141.1,40.8 M153.6,41.4c5.7-8.6,6.1-18.2-4.3-24.2c-9.4-5.4-22.5-3.1-32.3,0.3c-22.9,8-42.3,25-57.5,41.2
	c-8.4,9-16.6,18.8-23.1,29.3c-5.7-1.1-11.1-3.2-15.7-6.3c-8.5-6-12.6-15.1-13.2-24.3c-1.3-20.8,13-38.3,26.6-54.5
	c0.8-0.9-1-2.1-1.9-1.2C17.7,17,1.7,34,1,54.6C0.3,72.7,11.9,88.8,32.7,94.1h0.1c-4.1,7.5-7.1,15.4-8.6,23.5
	c-4.1,22,2.9,45.2,27.4,56.4c9.3,4.2,19,6.2,28.9,6.6v-11.3H68.3v-10.5h12.3v-11.9c-0.1,0-0.1,0-0.2,0
	c-40.3-7.4-27.1-41.3-23.3-49.3c0.4-0.7,0.8-1.4,1.2-2.2c14.5-1.8,28.5-7.6,41.1-14C119.6,71,141.6,59.2,153.6,41.4 M165.4,150.9
	v-31.6c-15,8.8-48.5,26.8-74.2,28v11.3h12.3v10.5H91.1v11.1c14.7-1.1,29.3-5.5,42.6-11.6C144.9,163.6,155.5,157.6,165.4,150.9"/>
</svg>
