<svg enable-background="new 0 0 501.7 166.6" viewBox="0 0 501.7 166.6" xmlns="http://www.w3.org/2000/svg"><path d="m494.3 145c0 1.9-.4 3.1-1.1 3.9-1.4 1.3-2.9 1.5-4.9 1.5-3.3 0-4.8-1.3-4.8-3.7s1.6-3.8 4.7-3.8h6.1zm5.2 9.5v-17.5c0-5.9-3.6-9-10.8-9-4.3 0-6.9.9-9.4 3.8l3.4 3.2c1.4-1.9 2.8-2.5 5.7-2.5 4.1 0 5.7 1.6 5.7 4.9v1.9h-6.9c-6 0-9 3.1-9 7.5 0 2.2.7 4.2 2.1 5.6 1.6 1.6 3.8 2.4 7 2.4s5-.8 6.9-2.7v2.4zm-22.8-24c-1.8-1.8-3.7-2.5-6.2-2.5-2.9 0-5.6 1.3-6.9 3.1v-2.8h-5.1v26.1h5.3v-15.8c0-3.6 2.4-5.9 5.2-5.9 1.8 0 2.7.6 3.9 1.8zm-30.4 8.8h-11.7c.1-1.6.2-2.4.7-3.6.8-2 2.7-3.3 5.2-3.3s4.3 1.3 5.1 3.3c.5 1.2.6 2 .7 3.6m5.2 3.6v-2.3c0-7.4-4.1-12.6-11.1-12.6-6.7 0-11.1 4.9-11.1 13.3 0 9.9 5.2 13.4 11.7 13.4 4.6 0 7.1-1.4 9.8-4.1l-3.3-3.1c-1.9 1.9-3.4 2.7-6.3 2.7-4.3 0-6.6-2.8-6.6-7.3zm-27.4 11.6v-4.7h-13.1l13.1-17.2v-4.2h-18.7v4.7h12.3l-13 17.2v4.2zm-24 0v-4.7h-13.1l13.1-17.2v-4.2h-18.7v4.7h12.3l-13 17.2v4.2zm-25.6-36.8h-5.6v5.6h5.6zm-.2 10.7h-5.3v26.1h5.3zm-9.7 0h-5.6l-6.1 18.4-6.2-18.4h-5.6l9.6 26.1h4.3zm-26.4 15.6c0-3.1-1-5.8-3-7.5-1.5-1.4-3.4-2.2-6.8-2.7l-4.2-.6c-1.7-.3-3.2-.9-4.1-1.7-1-.9-1.4-2.1-1.4-3.4 0-3.2 2.4-5.7 6.7-5.7 3.1 0 5.7.7 8 2.8l3.6-3.5c-3.1-2.9-6.5-4.2-11.4-4.2-7.6 0-12.3 4.4-12.3 10.8 0 3 .9 5.3 2.7 7 1.6 1.5 4 2.5 6.9 2.9l4.3.6c2.2.3 3.1.7 4 1.5 1 .9 1.4 2.2 1.4 3.8 0 3.6-2.8 5.6-7.6 5.6-3.8 0-6.7-.8-9.4-3.5l-3.7 3.7c3.5 3.6 7.5 4.8 13 4.8 7.8.1 13.3-3.9 13.3-10.7m-52.1 1c0 1.9-.4 3.1-1.1 3.9-1.4 1.3-2.9 1.5-4.9 1.5-3.3 0-4.8-1.3-4.8-3.7s1.6-3.8 4.7-3.8h6.1zm5.3 9.5v-17.5c0-5.9-3.6-9-10.8-9-4.3 0-6.9.9-9.4 3.8l3.4 3.2c1.4-1.9 2.8-2.5 5.7-2.5 4.1 0 5.7 1.6 5.7 4.9v1.9h-6.9c-6 0-9 3.1-9 7.5 0 2.2.7 4.2 2.1 5.6 1.6 1.6 3.8 2.4 7 2.4s5-.8 6.9-2.7v2.4zm-27.4-36.8h-5.6v5.6h5.6zm-.1 10.7h-5.3v26.1h5.3zm-18.9 12.5c0 4.1-.6 8.2-5.3 8.2s-5.4-4.1-5.4-8.2.6-8.2 5.4-8.2c4.7 0 5.3 4.1 5.3 8.2m5.3 13.4v-25.9h-5.1v2.8c-2-2.4-4.1-3.1-6.8-3.1-2.6 0-4.8.8-6.3 2.3-2.5 2.5-2.9 6.2-2.9 10.6s.4 8.1 2.9 10.6c1.4 1.4 3.6 2.3 6.2 2.3 2.7 0 4.8-.7 6.7-3v3.3c0 3.5-1.7 6.6-6.1 6.6-2.6 0-4-.8-5.7-2.3l-3.3 3.3c2.7 2.5 5.3 3.4 9.2 3.4 6.9.1 11.2-4.5 11.2-10.9m-22.6-23.8c-1.8-1.8-3.7-2.5-6.2-2.5-2.9 0-5.6 1.3-6.9 3.1v-2.8h-5.1v26.1h5.3v-15.8c0-3.6 2.4-5.9 5.2-5.9 1.8 0 2.7.6 3.9 1.8zm-30.5 8.8h-11.7c.1-1.6.2-2.4.7-3.6.8-2 2.7-3.3 5.2-3.3s4.3 1.3 5.1 3.3c.5 1.2.6 2 .7 3.6m5.2 3.6v-2.3c0-7.4-4.1-12.6-11.1-12.6-6.7 0-11.1 4.9-11.1 13.3 0 9.9 5.2 13.4 11.7 13.4 4.6 0 7.1-1.4 9.8-4.1l-3.3-3.1c-1.9 1.9-3.4 2.7-6.3 2.7-4.3 0-6.6-2.8-6.6-7.3zm-28.9 11.6v-16.7c0-2.9-.6-5.4-2.6-7.4-1.5-1.5-3.8-2.4-6.4-2.4s-5.1 1-6.9 2.9v-2.6h-5.1v26.1h5.2v-15.8c0-4 2.5-5.8 5.4-5.8s5.3 1.8 5.3 5.8v15.9zm-28.1 0v-5h-17.9v-11h15.2v-4.9h-15.2v-10.7h17.9v-5h-23.4v36.6zm-48.8-13.1c0 4.6-.7 8.7-5.4 8.7s-5.5-4.1-5.5-8.7.7-8.6 5.5-8.6c4.7-.1 5.4 4 5.4 8.6m5.3 0c0-4-.3-8.4-2.9-11-1.4-1.4-3.7-2.3-6.3-2.3-2.8 0-4.9.7-6.8 2.9v-13.2h-5.3v36.6h5.1v-2.8c2 2.4 4.1 3.1 6.9 3.1 2.6 0 4.9-.9 6.4-2.3 2.6-2.6 2.9-7 2.9-11m-29.7 13.1v-26.1h-5.3v15.9c0 4-2.5 5.8-5.4 5.8s-5.2-1.8-5.2-5.8v-15.9h-5.3v16.7c0 2.9.6 5.4 2.6 7.4 1.5 1.5 3.8 2.4 6.4 2.4s5.1-1 6.9-2.9v2.6h5.3zm-26.7 0v-4.5h-2.3c-2.1 0-2.8-1-2.8-3v-29.1h-5.3v29.4c0 3.9 2.2 7.2 7.2 7.2zm-17-11h-5.6c-.9 3.7-3.4 6.3-7.5 6.3-2.2 0-4.1-.8-5.4-2.2-1.8-2-2.2-4.1-2.2-11.4 0-7.4.4-9.5 2.2-11.4 1.3-1.4 3.2-2.2 5.4-2.2 4.1 0 6.5 2.6 7.4 6.3h5.7c-1.3-7.3-6.3-11.3-13.1-11.3-3.8 0-7.1 1.4-9.6 3.9-3.6 3.6-3.6 7.7-3.6 14.7 0 7.1-.1 11.1 3.6 14.7 2.5 2.5 5.8 3.9 9.6 3.9 6.6 0 11.8-4 13.1-11.3"/><path d="m454.5 82.1h-11.7c.1-1.6.2-2.4.7-3.6.8-2 2.7-3.3 5.2-3.3s4.3 1.3 5.1 3.3c.5 1.2.6 2 .7 3.6m5.2 3.6v-2.3c0-7.4-4.1-12.6-11.1-12.6-6.7 0-11.1 4.9-11.1 13.3 0 9.9 5.2 13.4 11.7 13.4 4.6 0 7.1-1.4 9.8-4.1l-3.3-3.1c-1.9 1.9-3.4 2.7-6.3 2.7-4.3 0-6.6-2.8-6.6-7.3zm-27.2 3.6c0-4.6-2.9-6.9-7.8-7.4l-4.1-.4c-2.8-.3-3.6-1.4-3.6-3 0-2 1.6-3.3 4.7-3.3 2.5 0 4.8.5 6.4 1.9l3.3-3.3c-2.4-2.1-5.8-2.9-9.7-2.9-5.5 0-9.8 2.9-9.8 8 0 4.6 2.8 6.8 7.7 7.2l4.2.4c2.5.2 3.5 1.3 3.5 3.1 0 2.5-2.5 3.6-5.7 3.6-2.6 0-5.4-.6-7.5-2.7l-3.4 3.4c3.1 3 6.7 3.8 11 3.8 6.2-.1 10.8-3 10.8-8.4m-25.4 0c0-4.6-2.9-6.9-7.8-7.4l-4.1-.4c-2.8-.3-3.6-1.4-3.6-3 0-2 1.6-3.3 4.7-3.3 2.5 0 4.8.5 6.4 1.9l3.3-3.3c-2.4-2.1-5.8-2.9-9.7-2.9-5.5 0-9.8 2.9-9.8 8 0 4.6 2.8 6.8 7.7 7.2l4.2.4c2.5.2 3.5 1.3 3.5 3.1 0 2.5-2.5 3.6-5.7 3.6-2.6 0-5.4-.6-7.5-2.7l-3.4 3.4c3.1 3 6.7 3.8 11 3.8 6.2-.1 10.8-3 10.8-8.4m-27.5-28.8h-5.6v5.6h5.6zm-.1 10.7h-5.3v26.1h5.3zm-13.6 26.1v-26.1h-5.3v15.9c0 4-2.5 5.8-5.4 5.8s-5.3-1.8-5.3-5.8v-15.9h-5.3v16.7c0 2.9.6 5.4 2.6 7.4 1.5 1.5 3.8 2.4 6.4 2.4s5.1-1 6.9-2.9v2.6h5.4zm-27.7-10.5c0-3.1-1-5.8-3-7.5-1.5-1.4-3.4-2.2-6.8-2.7l-4.2-.6c-1.7-.3-3.2-.9-4.1-1.7-1-.9-1.4-2.1-1.4-3.4 0-3.2 2.4-5.7 6.7-5.7 3.1 0 5.7.7 8 2.8l3.6-3.5c-3.1-2.9-6.5-4.2-11.4-4.2-7.6 0-12.3 4.4-12.3 10.8 0 3 .9 5.3 2.7 7 1.6 1.5 4 2.5 6.9 2.9l4.3.6c2.2.3 3.1.7 4 1.5 1 .9 1.4 2.2 1.4 3.8 0 3.6-2.8 5.6-7.6 5.6-3.8 0-6.7-.8-9.4-3.5l-3.7 3.7c3.5 3.6 7.5 4.8 13 4.8 7.8.1 13.3-3.9 13.3-10.7m-50.4-4.7h-11.8c.1-1.6.2-2.4.7-3.6.8-2 2.7-3.3 5.2-3.3s4.3 1.3 5.1 3.3c.6 1.2.7 2 .8 3.6m5.2 3.6v-2.3c0-7.4-4.1-12.6-11.1-12.6-6.7 0-11.1 4.9-11.1 13.3 0 9.9 5.2 13.4 11.7 13.4 4.6 0 7.1-1.4 9.8-4.1l-3.3-3.1c-1.9 1.9-3.4 2.7-6.3 2.7-4.3 0-6.6-2.8-6.6-7.3zm-29-25.2h-5.6v5.6h5.6zm-.1 10.7h-5.3v26.1h5.3zm-18.9 12.5c0 4.1-.6 8.2-5.3 8.2s-5.4-4.1-5.4-8.2.6-8.2 5.4-8.2c4.7 0 5.3 4.1 5.3 8.2m5.3 13.4v-25.9h-5.1v2.8c-2-2.4-4.1-3.1-6.8-3.1-2.6 0-4.8.8-6.3 2.3-2.5 2.5-2.9 6.2-2.9 10.6s.4 8.1 2.9 10.6c1.4 1.4 3.6 2.3 6.2 2.3 2.7 0 4.8-.7 6.7-3v3.3c0 3.5-1.7 6.6-6.1 6.6-2.6 0-4-.8-5.7-2.3l-3.3 3.3c2.7 2.5 5.3 3.4 9.2 3.4 6.9.1 11.2-4.5 11.2-10.9m-22.6-23.8c-1.8-1.8-3.7-2.5-6.2-2.5-2.9 0-5.6 1.3-6.9 3.1v-2.8h-5.1v26.1h5.3v-15.9c0-3.6 2.4-5.9 5.2-5.9 1.8 0 2.7.6 3.9 1.8zm-30.5 8.8h-11.7c.1-1.6.2-2.4.7-3.6.8-2 2.7-3.3 5.2-3.3s4.3 1.3 5.1 3.3c.5 1.2.6 2 .7 3.6m5.2 3.6v-2.3c0-7.4-4.1-12.6-11.1-12.6-6.7 0-11.1 4.9-11.1 13.3 0 9.9 5.2 13.4 11.7 13.4 4.6 0 7.1-1.4 9.8-4.1l-3.3-3.1c-1.9 1.9-3.4 2.7-6.3 2.7-4.3 0-6.6-2.8-6.6-7.3zm-28.9 11.6v-16.7c0-2.9-.6-5.4-2.6-7.4-1.5-1.5-3.8-2.4-6.4-2.4s-5.1 1-6.9 2.9v-2.6h-5.1v26.1h5.2v-15.9c0-4 2.5-5.8 5.4-5.8s5.3 1.8 5.3 5.8v15.9h5.1zm-28.1 0v-5h-17.9v-11h15.2v-4.9h-15.2v-10.8h17.9v-5h-23.4v36.7zm-48.8-13.1c0 4.6-.7 8.7-5.4 8.7s-5.5-4.1-5.5-8.7.7-8.6 5.5-8.6c4.7-.1 5.4 4 5.4 8.6m5.3 0c0-4-.3-8.4-2.9-11-1.4-1.4-3.7-2.3-6.3-2.3-2.8 0-4.9.7-6.8 2.9v-13.2h-5.3v36.7h5.1v-2.8c2 2.4 4.1 3.1 6.9 3.1 2.6 0 4.9-.9 6.4-2.3 2.6-2.7 2.9-7.1 2.9-11.1m-29.7 13.1v-26.1h-5.3v15.9c0 4-2.5 5.8-5.4 5.8s-5.2-1.8-5.2-5.8v-15.9h-5.3v16.7c0 2.9.6 5.4 2.6 7.4 1.5 1.5 3.8 2.4 6.4 2.4s5.1-1 6.9-2.9v2.6h5.3zm-26.7 0v-4.5h-2.3c-2.1 0-2.8-1-2.8-3v-29.2h-5.3v29.4c0 3.9 2.2 7.2 7.2 7.2h3.2zm-17-11h-5.6c-.9 3.7-3.4 6.3-7.5 6.3-2.2 0-4.1-.8-5.4-2.2-1.8-2-2.2-4.1-2.2-11.4s.4-9.5 2.2-11.4c1.3-1.4 3.2-2.2 5.4-2.2 4.1 0 6.5 2.6 7.4 6.3h5.7c-1.3-7.3-6.3-11.3-13.1-11.3-3.8 0-7.1 1.4-9.6 3.9-3.6 3.6-3.6 7.7-3.6 14.7s-.1 11.1 3.6 14.7c2.5 2.5 5.8 3.9 9.6 3.9 6.6 0 11.8-4 13.1-11.3"/><path d="m495.8 40.1v-4.7h-13.1l13.1-17.2v-4.2h-18.8v4.7h12.3l-13 17.2v4.2zm-25.7-36.8h-5.6v5.6h5.6zm-.2 10.7h-5.3v26.1h5.3zm-17.4 10.9h-11.7c.1-1.6.2-2.4.7-3.6.8-2 2.7-3.3 5.2-3.3s4.3 1.3 5.1 3.3c.5 1.2.7 2 .7 3.6m5.2 3.6v-2.3c0-7.4-4.1-12.6-11.1-12.6-6.7 0-11.1 4.9-11.1 13.3 0 9.9 5.2 13.4 11.7 13.4 4.6 0 7.1-1.4 9.8-4.1l-3.3-3.1c-1.9 1.9-3.4 2.7-6.3 2.7-4.3 0-6.6-2.8-6.6-7.3zm-24.9-14.5h-5.6l-5 18.4-6-18.4h-4.2l-6.1 18.4-5-18.4h-5.6l8.1 26.1h4.5l6.1-18.2 6.1 18.2h4.5zm-41.8 26.1v-16.8c0-5.7-3.2-9.6-9.1-9.6-2.6 0-4.9 1-6.7 2.9v-13.2h-5.2v36.6h5.3v-16c0-3.9 2.4-5.7 5.3-5.7s5.3 1.8 5.3 5.7v16h5.1zm-27.1-3.4-3.6-3.4c-1.6 1.8-2.9 2.5-5 2.5-2 0-3.7-.8-4.8-2.3-1.1-1.4-1.5-3.3-1.5-6.4s.4-4.9 1.5-6.3c1.1-1.5 2.8-2.3 4.8-2.3 2.1 0 3.3.7 5 2.5l3.6-3.5c-2.5-2.6-5-3.7-8.6-3.7-5.9 0-11.6 3.6-11.6 13.3 0 9.8 5.8 13.4 11.6 13.4 3.6-.1 6.1-1.2 8.6-3.8m-25.7-7.1c0-3.1-1-5.8-3-7.5-1.5-1.4-3.4-2.2-6.8-2.7l-4.2-.6c-1.7-.3-3.2-.9-4.1-1.7-1-.9-1.4-2.1-1.4-3.4 0-3.2 2.4-5.7 6.7-5.7 3.1 0 5.7.7 8 2.8l3.6-3.5c-3.1-2.9-6.5-4.2-11.4-4.2-7.6 0-12.3 4.4-12.3 10.8 0 3 .9 5.3 2.7 7 1.6 1.5 4 2.5 6.9 2.9l4.3.6c2.2.3 3.1.7 4 1.5 1 .9 1.4 2.2 1.4 3.8 0 3.6-2.8 5.6-7.6 5.6-3.8 0-6.7-.8-9.4-3.5l-3.7 3.7c3.5 3.6 7.5 4.8 13 4.8 7.8.1 13.3-3.9 13.3-10.7m-50.6-2.6c0 4.6-.7 8.7-5.4 8.7s-5.5-4.1-5.5-8.7.7-8.6 5.5-8.6c4.7 0 5.4 4 5.4 8.6m5.2 0c0-4-.3-8.4-2.9-11-1.4-1.4-3.7-2.3-6.3-2.3-2.8 0-4.9.7-6.8 2.9v-13.2h-5.3v36.6h5.1v-2.8c2 2.4 4.1 3.1 6.9 3.1 2.6 0 4.9-.9 6.4-2.3 2.6-2.6 2.9-7 2.9-11m-29.7 13.1v-26.1h-5.3v15.9c0 4-2.5 5.8-5.4 5.8s-5.3-1.8-5.3-5.8v-15.9h-5.1v16.7c0 2.9.6 5.4 2.6 7.4 1.5 1.5 3.8 2.4 6.4 2.4s5.1-1 6.9-2.9v2.6zm-26.6 0v-4.5h-2.3c-2.1 0-2.8-1-2.8-3v-29.1h-5.3v29.4c0 3.9 2.2 7.2 7.2 7.2zm-17.1-11h-5.6c-.9 3.7-3.4 6.3-7.5 6.3-2.2 0-4.1-.8-5.4-2.2-1.8-2-2.2-4.1-2.2-11.4 0-7.4.4-9.5 2.2-11.4 1.3-1.4 3.2-2.2 5.4-2.2 4.1 0 6.5 2.6 7.4 6.3h5.7c-1.3-7.3-6.3-11.3-13.1-11.3-3.8 0-7.1 1.4-9.6 3.9-3.6 3.6-3.6 7.7-3.6 14.7s-.1 11.1 3.6 14.7c2.5 2.5 5.8 3.9 9.6 3.9 6.7 0 11.9-4 13.1-11.3m-50-4.2h-11.7c.1-1.6.2-2.4.7-3.6.8-2 2.7-3.3 5.2-3.3s4.3 1.3 5.1 3.3c.5 1.2.6 2 .7 3.6m5.2 3.6v-2.3c0-7.4-4.1-12.6-11.1-12.6-6.7 0-11.1 4.9-11.1 13.3 0 9.9 5.2 13.4 11.7 13.4 4.6 0 7.1-1.4 9.8-4.1l-3.3-3.1c-1.9 1.9-3.4 2.7-6.3 2.7-4.3 0-6.6-2.8-6.6-7.3zm-29-25.2h-5.6v5.6h5.6zm-.1 10.7h-5.3v26.1h5.3zm-18.9 12.5c0 4.1-.6 8.2-5.3 8.2s-5.4-4.1-5.4-8.2.6-8.2 5.4-8.2c4.8.1 5.3 4.1 5.3 8.2m5.3 13.4v-25.9h-5.1v2.8c-2-2.4-4.1-3.1-6.8-3.1-2.6 0-4.8.8-6.3 2.3-2.5 2.5-2.9 6.2-2.9 10.6s.4 8.1 2.9 10.6c1.4 1.4 3.6 2.3 6.2 2.3 2.7 0 4.8-.7 6.7-3v3.3c0 3.5-1.7 6.6-6.1 6.6-2.6 0-4-.8-5.7-2.3l-3.3 3.3c2.7 2.5 5.3 3.4 9.2 3.4 7 .1 11.2-4.5 11.2-10.9m-22.6-23.8c-1.8-1.8-3.7-2.5-6.2-2.5-2.9 0-5.6 1.3-6.9 3.1v-2.8h-5.2v26.1h5.3v-15.9c0-3.6 2.4-5.9 5.2-5.9 1.8 0 2.7.6 3.9 1.8zm-30.5 8.8h-11.7c.1-1.6.2-2.4.7-3.6.8-2 2.7-3.3 5.2-3.3s4.3 1.3 5.1 3.3c.5 1.2.7 2 .7 3.6m5.2 3.6v-2.3c0-7.4-4.1-12.6-11.1-12.6-6.7 0-11.1 4.9-11.1 13.3 0 9.9 5.2 13.4 11.7 13.4 4.6 0 7.1-1.4 9.8-4.1l-3.3-3.1c-1.9 1.9-3.4 2.7-6.3 2.7-4.3 0-6.6-2.8-6.6-7.3zm-28.9 11.6v-16.7c0-2.9-.6-5.4-2.6-7.4-1.5-1.5-3.8-2.4-6.4-2.4s-5.1 1-6.9 2.9v-2.6h-5.2v26.1h5.3v-15.9c0-4 2.5-5.8 5.4-5.8s5.3 1.8 5.3 5.8v15.9zm-28.1 0v-5h-17.9v-11h15.2v-4.9h-15.2v-10.7h17.9v-5h-23.5v36.6z"/></svg>